# xmcd
#
# Track frame offsets: 
#        150
#        17927
#        30520
#        46840
#        61760
#        75912
#        91737
#        104952
#        116560
#        130135
#
# Disc length: 2014 seconds
#
# Revision: 1
# Processed by: cddbd v1.5.2PL0 Copyright (c) Steve Scherf et al.
# Submitted via: ExactAudioCopy v0.99pb5
#
DISCID=7407dc0a
DTITLE=Krølle Erik - Ej blot til blues
DYEAR=1989
DGENRE=Blues
TTITLE0=Sidste omgang
TTITLE1=On a Monday
TTITLE2=Jeg har smidt mig på min sofa
TTITLE3=Alt på et brædt
TTITLE4=Det er farligt at forelske sig nu
TTITLE5=Nu har natten nået os
TTITLE6=I byens lys
TTITLE7=Money Honey
TTITLE8=Lulu
TTITLE9=Nattens sidste blinde passager
EXTD=YEAR: 1989
EXTT0=
EXTT1=
EXTT2=
EXTT3=
EXTT4=
EXTT5=
EXTT6=
EXTT7=
EXTT8=
EXTT9=
PLAYORDER=
